<?xml version="1.0" standalone="no"?>
<!DOCTYPE svg PUBLIC "-//W3C//DTD SVG 20010904//EN"
 "http://www.w3.org/TR/2001/REC-SVG-20010904/DTD/svg10.dtd">
<svg version="1.0" xmlns="http://www.w3.org/2000/svg"
 width="505.000000pt" height="517.000000pt" viewBox="0 0 505.000000 517.000000"
 preserveAspectRatio="xMidYMid meet">

<g transform="translate(0.000000,517.000000) scale(0.100000,-0.100000)"
fill="#000000" stroke="none">
<path d="M2362 4179 c-6 -16 4 -47 38 -118 25 -53 59 -126 75 -163 29 -66 44
-78 73 -59 11 6 -5 48 -68 185 -81 174 -102 200 -118 155z"/>
<path d="M2032 4139 c-13 -5 -22 -15 -20 -22 2 -7 26 -88 53 -180 49 -163 50
-166 75 -160 14 3 26 6 27 7 2 2 -105 357 -109 361 -2 1 -13 -1 -26 -6z"/>
<path d="M3022 4098 c-8 -8 -12 -66 -12 -195 l0 -183 26 -10 c14 -6 27 -10 30
-10 6 0 5 298 -2 358 -7 52 -19 63 -42 40z"/>
<path d="M1756 4027 l-30 -13 38 0 c72 0 119 -87 85 -157 -7 -15 -1 -12 20 10
40 43 48 76 27 119 -24 51 -79 67 -140 41z"/>
<path d="M1633 3957 c-22 -12 -21 -14 65 -172 49 -87 93 -160 98 -162 5 -2 17
2 27 9 15 12 9 27 -69 168 -47 85 -89 158 -92 162 -4 4 -17 1 -29 -5z"/>
<path d="M3342 3932 c-12 -16 -20 -31 -18 -33 2 -2 10 -95 17 -206 7 -112 15
-203 18 -202 3 0 15 12 27 27 20 27 20 30 6 227 -7 110 -17 204 -22 208 -4 5
-17 -5 -28 -21z"/>
<path d="M1429 3803 c-19 -20 -27 -32 -19 -27 8 5 35 11 58 14 l44 5 -24 22
-24 23 -35 -37z"/>
<path d="M1863 3776 c32 -30 98 -50 136 -41 24 5 27 10 23 36 -3 23 -8 29 -21
23 -32 -13 -118 -16 -142 -5 -22 11 -22 10 4 -13z"/>
<path d="M1297 3672 c-15 -17 -9 -26 116 -150 l133 -133 19 21 c19 21 18 21
-110 150 -72 72 -132 130 -136 130 -3 0 -13 -8 -22 -18z"/>
<path d="M1684 3604 c4 -17 2 -44 -4 -60 l-11 -29 33 32 33 33 -29 27 -28 28
6 -31z"/>
<path d="M3618 3575 c-88 -32 -148 -108 -148 -186 0 -25 6 -53 13 -63 12 -16
13 -14 9 18 -6 54 32 104 132 173 47 32 86 61 86 66 0 11 -51 7 -92 -8z"/>
<path d="M2780 3550 c-14 -27 -9 -112 8 -118 9 -3 12 15 12 67 0 39 -2 71 -5
71 -2 0 -9 -9 -15 -20z"/>
<path d="M2530 3544 c0 -35 23 -103 37 -108 29 -12 31 5 6 64 -25 58 -43 76
-43 44z"/>
<path d="M1168 3496 c-17 -23 -17 -24 14 -30 39 -8 42 -5 27 28 -15 32 -19 32
-41 2z"/>
<path d="M3820 3494 c14 -36 12 -79 -4 -119 -15 -34 -14 -35 8 -35 36 0 44 16
35 69 -7 45 -33 111 -44 111 -2 0 0 -12 5 -26z"/>
<path d="M1052 3306 c-6 -15 -12 -29 -12 -31 0 -3 57 -5 126 -5 l126 0 64 -36
c36 -20 66 -35 68 -33 2 2 8 13 14 25 10 18 5 24 -52 57 -61 35 -68 36 -193
43 l-129 7 -12 -27z"/>
<path d="M3665 3289 c-22 -17 -45 -34 -51 -37 -6 -4 -14 -24 -18 -45 l-7 -38
75 51 c76 51 76 51 60 75 -9 14 -17 25 -18 25 0 0 -19 -14 -41 -31z"/>
<path d="M3035 3288 c-11 -32 -9 -91 3 -95 9 -3 12 11 12 51 0 54 -6 70 -15
44z"/>
<path d="M3795 3146 c-150 -49 -160 -54 -157 -76 1 -13 4 -26 6 -28 7 -7 356
108 356 118 0 21 -14 40 -29 39 -9 0 -88 -24 -176 -53z"/>
<path d="M1024 3081 c-42 -19 -76 -57 -89 -101 -7 -24 -7 -24 15 4 45 56 126
69 245 41 88 -21 95 -19 53 20 -60 56 -149 70 -224 36z"/>
<path d="M2795 3020 c-3 -5 -2 -10 4 -10 5 0 13 5 16 10 3 6 2 10 -4 10 -5 0
-13 -4 -16 -10z"/>
<path d="M4023 2982 c-21 -44 -13 -54 21 -29 15 11 17 19 9 42 l-9 29 -21 -42z"/>
<path d="M1982 2968 c7 -19 76 -51 96 -43 13 5 8 11 -28 30 -50 27 -74 31 -68
13z"/>
<path d="M3686 2907 c20 -65 22 -67 56 -60 44 8 60 23 24 23 -17 0 -39 11 -57
30 -27 27 -30 27 -23 7z"/>
<path d="M1285 2851 c-8 -25 -43 -48 -97 -61 -35 -9 -61 -8 -138 8 -52 11 -97
19 -99 17 -7 -8 51 -57 84 -71 45 -18 138 -18 175 1 32 16 74 67 85 103 3 12
4 22 1 22 -2 0 -7 -9 -11 -19z"/>
<path d="M1790 2840 c6 -11 13 -20 16 -20 2 0 0 9 -6 20 -6 11 -13 20 -16 20
-2 0 0 -9 6 -20z"/>
<path d="M3828 2773 l-108 -4 0 -30 0 -30 168 6 c207 8 212 9 212 40 0 28 24
26 -272 18z"/>
<path d="M2517 2693 c-4 -3 -7 -11 -7 -17 0 -6 5 -5 12 2 6 6 9 14 7 17 -3 3
-9 2 -12 -2z"/>
<path d="M1876 2586 c-28 -37 -39 -56 -33 -56 2 0 17 18 31 41 26 38 28 40 42
22 13 -17 14 -17 8 2 -3 11 6 1 21 -22 14 -24 28 -43 29 -43 2 0 16 19 31 42
l28 42 19 -38 c11 -21 22 -36 25 -33 3 3 -2 16 -11 29 -9 12 -16 27 -16 33 0
5 12 -9 26 -32 14 -24 27 -43 28 -43 2 0 16 19 31 42 l28 42 19 -38 c11 -21
22 -36 24 -33 5 5 -35 77 -42 77 -2 0 -17 -19 -34 -42 -35 -48 -39 -45 -9 7
l22 37 -54 -3 c-30 -1 -60 -7 -66 -12 -9 -6 -13 -6 -13 2 0 8 -18 11 -56 10
-49 -2 -58 -6 -78 -33z m118 -16 c-10 -16 -20 -28 -22 -26 -4 5 28 56 35 56 2
0 -4 -13 -13 -30z"/>
<path d="M890 2580 l0 -30 68 0 c38 0 144 3 236 7 146 5 164 8 138 19 -16 6
-33 17 -36 23 -5 7 -72 11 -207 11 l-199 0 0 -30z"/>
<path d="M3730 2558 l0 -38 48 0 47 1 -37 19 c-20 11 -42 28 -47 37 -8 15 -10
11 -11 -19z"/>
<path d="M1936 2557 c3 -10 9 -15 12 -12 3 3 0 11 -7 18 -10 9 -11 8 -5 -6z"/>
<path d="M1900 2519 c-31 -3 25 -6 127 -7 100 -1 184 1 186 6 6 8 -234 10
-313 1z"/>
<path d="M1623 2493 c9 -2 23 -2 30 0 6 3 -1 5 -18 5 -16 0 -22 -2 -12 -5z"/>
<path d="M1975 2491 c-3 -6 0 -31 6 -56 8 -34 14 -43 21 -33 6 8 7 1 3 -22 -5
-26 -4 -31 4 -20 10 13 11 13 10 0 -1 -19 -17 -59 -18 -44 -1 7 -9 15 -18 19
-11 4 -7 -5 11 -24 l30 -31 38 37 c48 47 49 55 3 14 -20 -17 -41 -31 -48 -31
-7 0 -2 8 10 18 14 11 28 41 38 82 9 36 18 74 21 85 4 16 3 17 -5 5 -7 -10
-11 -11 -11 -2 0 14 -86 17 -95 3z m12 -23 c-3 -8 -6 -5 -6 6 -1 11 2 17 5 13
3 -3 4 -12 1 -19z m80 -20 c-3 -8 -6 -5 -6 6 -1 11 2 17 5 13 3 -3 4 -12 1
-19z m-70 -20 c-3 -8 -6 -5 -6 6 -1 11 2 17 5 13 3 -3 4 -12 1 -19z m60 -20
c-3 -8 -6 -5 -6 6 -1 11 2 17 5 13 3 -3 4 -12 1 -19z"/>
<path d="M2154 2433 c-33 -37 -54 -64 -48 -60 15 9 118 127 111 127 -2 0 -31
-30 -63 -67z"/>
<path d="M2930 2496 c0 -2 25 -22 55 -45 57 -43 62 -53 84 -166 10 -49 10 -49
4 15 -3 36 -11 79 -19 96 -16 33 -124 121 -124 100z"/>
<path d="M1910 2410 c29 -33 54 -60 58 -60 5 0 -10 19 -60 75 -16 16 -28 33
-28 38 0 4 -5 7 -11 7 -6 0 12 -27 41 -60z"/>
<path d="M1686 2305 c-11 -8 -16 -15 -10 -15 5 0 18 7 28 15 11 8 16 15 10 15
-5 0 -18 -7 -28 -15z"/>
<path d="M2831 2257 c-2 -35 -42 -98 -83 -127 -22 -17 -36 -30 -29 -30 6 0 31
18 56 41 43 40 72 96 62 122 -3 7 -6 4 -6 -6z"/>
<path d="M2003 2094 c-18 -9 -33 -20 -33 -25 0 -5 26 -9 58 -10 31 0 78 -4
104 -8 38 -6 48 -5 53 7 10 28 -22 46 -87 49 -44 3 -73 -1 -95 -13z"/>
<path d="M3121 2058 c0 -9 -9 -18 -18 -20 -15 -3 -15 -4 0 -20 15 -14 15 -21
3 -55 -13 -37 -13 -37 -21 -13 -10 33 -25 51 -36 44 -5 -3 -2 -15 6 -27 21
-30 19 -80 -5 -102 -20 -18 -20 -17 -20 18 0 54 -18 45 -22 -10 -3 -47 -4 -49
-58 -76 -54 -27 -37 -28 29 -1 19 8 58 17 87 20 61 8 75 28 15 22 l-39 -3 25
30 c29 34 46 43 86 44 17 1 27 6 27 16 0 18 -23 19 -52 4 -19 -10 -20 -9 -14
17 4 16 21 41 39 56 30 26 31 27 10 28 -13 0 -24 -6 -24 -12 -1 -7 -5 3 -9 22
-4 19 -8 27 -9 18z"/>
<path d="M2345 1980 c-3 -5 -1 -10 4 -10 6 0 11 5 11 10 0 6 -2 10 -4 10 -3 0
-8 -4 -11 -10z"/>
<path d="M3160 1788 c0 -10 -5 -18 -11 -18 -17 0 7 -27 29 -32 13 -4 17 2 17
23 0 15 -4 25 -9 22 -4 -3 -12 1 -17 8 -7 11 -9 10 -9 -3z"/>
<path d="M3050 1738 c-31 -51 -24 -100 19 -145 16 -17 33 -23 66 -23 51 0 68
15 26 23 -60 12 -109 105 -81 156 18 35 -8 25 -30 -11z"/>
<path d="M1599 1053 c-13 -15 -12 -15 9 -2 19 12 25 12 45 0 20 -13 21 -13 8
2 -7 10 -21 17 -31 17 -10 0 -24 -7 -31 -17z"/>
<path d="M1843 1063 c9 -2 23 -2 30 0 6 3 -1 5 -18 5 -16 0 -22 -2 -12 -5z"/>
<path d="M1955 1062 c23 -6 30 -13 30 -32 0 -19 -7 -26 -30 -32 l-30 -7 29 2
c60 4 60 70 0 74 l-29 2 30 -7z"/>
<path d="M2120 1060 c0 -5 5 -10 10 -10 6 0 10 5 10 10 0 6 -4 10 -10 10 -5 0
-10 -4 -10 -10z"/>
<path d="M2440 1061 c0 -5 5 -13 10 -16 6 -3 10 -2 10 4 0 5 -4 13 -10 16 -5
3 -10 2 -10 -4z"/>
<path d="M2540 1055 c-7 -9 -10 -18 -6 -22 3 -3 6 -1 6 6 0 6 10 16 23 21 15
6 17 9 6 9 -9 1 -22 -6 -29 -14z"/>
<path d="M2666 1061 c-4 -5 3 -7 14 -4 23 6 26 13 6 13 -8 0 -17 -4 -20 -9z"/>
<path d="M2793 1063 c9 -2 23 -2 30 0 6 3 -1 5 -18 5 -16 0 -22 -2 -12 -5z"/>
<path d="M3028 1063 c7 -3 16 -2 19 1 4 3 -2 6 -13 5 -11 0 -14 -3 -6 -6z"/>
<path d="M3138 1063 c6 -2 18 -2 25 0 6 3 1 5 -13 5 -14 0 -19 -2 -12 -5z"/>
<path d="M3243 995 c0 -44 2 -61 4 -37 2 23 2 59 0 80 -2 20 -4 1 -4 -43z"/>
<path d="M3309 1053 c-13 -15 -12 -15 9 -2 19 12 25 12 45 0 20 -13 21 -13 8
2 -7 10 -21 17 -31 17 -10 0 -24 -7 -31 -17z"/>
<path d="M1720 1045 c0 -5 5 -17 10 -25 5 -8 10 -10 10 -5 0 6 -5 17 -10 25
-5 8 -10 11 -10 5z"/>
<path d="M2260 1045 c0 -5 5 -17 10 -25 5 -8 10 -10 10 -5 0 6 -5 17 -10 25
-5 8 -10 11 -10 5z"/>
<path d="M3188 1023 c-4 -14 -16 -23 -34 -26 -29 -4 -29 -4 -3 -6 29 -1 53 21
47 41 -3 7 -7 3 -10 -9z"/>
<path d="M1582 1000 c0 -19 2 -27 5 -17 2 9 2 25 0 35 -3 9 -5 1 -5 -18z"/>
<path d="M1673 995 c0 -22 2 -30 4 -17 2 12 2 30 0 40 -3 9 -5 -1 -4 -23z"/>
<path d="M2880 1021 c0 -6 4 -13 10 -16 6 -3 7 1 4 9 -7 18 -14 21 -14 7z"/>
<path d="M3292 1000 c0 -19 2 -27 5 -17 2 9 2 25 0 35 -3 9 -5 1 -5 -18z"/>
<path d="M3383 995 c0 -22 2 -30 4 -17 2 12 2 30 0 40 -3 9 -5 -1 -4 -23z"/>
<path d="M3430 1021 c0 -6 4 -13 10 -16 6 -3 7 1 4 9 -7 18 -14 21 -14 7z"/>
<path d="M1843 993 c9 -2 23 -2 30 0 6 3 -1 5 -18 5 -16 0 -22 -2 -12 -5z"/>
<path d="M2793 993 c9 -2 23 -2 30 0 6 3 -1 5 -18 5 -16 0 -22 -2 -12 -5z"/>
<path d="M2911 997 c2 -1 13 -9 24 -17 19 -14 19 -14 6 3 -7 9 -18 17 -24 17
-6 0 -8 -1 -6 -3z"/>
<path d="M3461 997 c2 -1 13 -9 24 -17 19 -14 19 -14 6 3 -7 9 -18 17 -24 17
-6 0 -8 -1 -6 -3z"/>
<path d="M2096 966 c-4 -15 -5 -31 -1 -34 3 -3 5 2 5 11 0 12 9 17 30 17 22 0
30 5 29 18 0 10 -3 12 -6 5 -6 -17 -40 -17 -45 -1 -3 7 -8 0 -12 -16z"/>
<path d="M2470 981 c0 -5 -12 -11 -27 -13 -14 -2 -28 -9 -29 -16 -1 -7 0 -8 3
-2 2 5 18 10 34 10 19 0 29 5 29 15 0 8 -2 15 -5 15 -3 0 -5 -4 -5 -9z"/>
<path d="M1980 946 c0 -8 4 -17 9 -20 5 -4 7 3 4 14 -6 23 -13 26 -13 6z"/>
<path d="M2530 951 c0 -6 4 -13 10 -16 6 -3 7 1 4 9 -7 18 -14 21 -14 7z"/>
<path d="M2596 943 c-6 -14 -5 -15 5 -6 7 7 10 15 7 18 -3 3 -9 -2 -12 -12z"/>
<path d="M1599 937 c7 -10 21 -17 31 -17 10 0 24 7 31 17 13 15 12 15 -8 2
-20 -12 -26 -12 -45 0 -21 13 -22 13 -9 -2z"/>
<path d="M2481 934 c0 -11 3 -14 6 -6 3 7 2 16 -1 19 -3 4 -6 -2 -5 -13z"/>
<path d="M2700 934 c-17 -9 -20 -14 -9 -14 9 0 22 7 29 15 15 18 13 18 -20 -1z"/>
<path d="M3180 941 c0 -6 4 -13 10 -16 6 -3 7 1 4 9 -7 18 -14 21 -14 7z"/>
<path d="M3309 937 c7 -10 21 -17 31 -17 10 0 24 7 31 17 13 15 12 15 -8 2
-20 -12 -26 -12 -45 0 -21 13 -22 13 -9 -2z"/>
<path d="M1497 928 c2 -5 10 -8 18 -8 8 0 16 3 18 8 3 4 -5 7 -18 7 -13 0 -21
-3 -18 -7z"/>
<path d="M1843 923 c9 -2 25 -2 35 0 9 3 1 5 -18 5 -19 0 -27 -2 -17 -5z"/>
<path d="M2793 923 c9 -2 25 -2 35 0 9 3 1 5 -18 5 -19 0 -27 -2 -17 -5z"/>
<path d="M2908 923 c7 -3 16 -2 19 1 4 3 -2 6 -13 5 -11 0 -14 -3 -6 -6z"/>
<path d="M3028 923 c7 -3 16 -2 19 1 4 3 -2 6 -13 5 -11 0 -14 -3 -6 -6z"/>
<path d="M3458 923 c7 -3 16 -2 19 1 4 3 -2 6 -13 5 -11 0 -14 -3 -6 -6z"/>
</g>
</svg>
